<?xml version="1.0" encoding="UTF-8"?>
<svg xmlns="http://www.w3.org/2000/svg" xmlns:xlink="http://www.w3.org/1999/xlink" width="100px" height="100px" viewBox="0 0 100 100" version="1.1">
<g id="surface1">
<path style=" stroke:none;fill-rule:nonzero;fill:rgb(66.666669%,66.666669%,66.666669%);fill-opacity:1;" d="M 56.050781 7.082031 C 54.765625 7.648438 41.296875 19.222656 40.730469 20.308594 C 40.117188 21.390625 40.785156 22.992188 41.964844 23.355469 C 43.25 23.769531 43.867188 23.40625 51.886719 16.433594 C 55.535156 13.28125 58.878906 10.699219 59.238281 10.699219 C 59.597656 10.699219 60.367188 11.164062 60.933594 11.730469 C 61.859375 12.660156 61.960938 13.4375 61.960938 18.394531 L 61.960938 24.027344 L 66.742188 26.351562 C 69.3125 27.644531 72.652344 29.761719 74.144531 31.105469 C 77.382812 33.996094 80.929688 39.265625 82.625 43.761719 C 83.808594 47.015625 83.910156 47.121094 85.605469 47.121094 C 87.40625 47.121094 87.40625 47.066406 87.355469 44.949219 C 87.355469 43.453125 86.582031 41.230469 85.09375 38.234375 C 82.164062 32.1875 75.941406 25.886719 70.082031 22.890625 L 66.074219 20.875 L 66.074219 10.59375 L 64.070312 8.582031 C 62.269531 6.773438 61.808594 6.566406 59.597656 6.617188 C 58.210938 6.617188 56.617188 6.824219 56.050781 7.082031 Z M 56.050781 7.082031 "/>
<path style=" stroke:none;fill-rule:nonzero;fill:rgb(66.666669%,66.666669%,66.666669%);fill-opacity:1;" d="M 8.65625 30.898438 C 2.230469 37.769531 -1.007812 48.257812 0.277344 57.761719 C 1.410156 65.925781 2.898438 68.609375 17.601562 88.707031 L 25.722656 99.8125 L 30.8125 99.96875 C 34.101562 100.074219 36.105469 99.917969 36.570312 99.503906 C 37.082031 99.089844 37.289062 97.488281 37.289062 93.5625 L 37.289062 88.191406 L 43.457031 88.191406 L 43.457031 93.5625 C 43.457031 97.488281 43.660156 99.089844 44.175781 99.503906 C 44.640625 99.917969 46.644531 100.074219 49.933594 99.96875 L 55.023438 99.8125 L 62.734375 88.242188 L 75.839844 88.136719 C 83.035156 88.085938 90.285156 87.984375 91.929688 87.933594 C 95.21875 87.828125 96.914062 86.898438 98.867188 84.058594 C 99.949219 82.402344 100 81.992188 100 69.59375 C 100 57.195312 99.949219 56.78125 98.867188 55.128906 C 96.96875 52.390625 95.167969 51.304688 92.390625 51.304688 C 89.410156 51.304688 86.996094 52.648438 85.453125 55.128906 C 84.375 56.882812 84.320312 57.453125 84.320312 70.265625 L 84.320312 83.539062 L 60.417969 83.539062 L 56.511719 89.480469 L 52.554688 95.421875 L 48.082031 95.421875 L 48.082031 90.464844 C 48.082031 83.335938 48.339844 83.539062 40.371094 83.539062 C 32.40625 83.539062 32.660156 83.335938 32.660156 90.464844 L 32.660156 95.421875 L 28.242188 95.421875 L 18.9375 82.609375 C 7.9375 67.472656 7.320312 66.492188 5.878906 62.257812 C 4.441406 58.019531 4.289062 50.117188 5.625 45.570312 C 6.703125 41.796875 8.964844 37.613281 11.636719 34.410156 C 13.847656 31.777344 14.054688 30.847656 12.820312 29.605469 C 11.585938 28.367188 10.765625 28.574219 8.65625 30.898438 Z M 93.472656 56.210938 C 94.089844 56.574219 94.757812 57.089844 94.960938 57.398438 C 95.167969 57.710938 95.375 63.238281 95.375 69.695312 C 95.375 80.800781 95.324219 81.527344 94.34375 82.507812 C 92.957031 83.902344 91.46875 83.800781 89.925781 82.25 L 88.640625 80.957031 L 88.792969 69.28125 C 88.949219 57.710938 88.949219 57.605469 90.183594 56.625 C 91.570312 55.488281 91.980469 55.4375 93.472656 56.210938 Z M 93.472656 56.210938 "/>
<path style="fill:none;stroke-width:8;stroke-linecap:butt;stroke-linejoin:miter;stroke:rgb(82.352942%,80.784315%,98.039216%);stroke-opacity:1;stroke-miterlimit:4;" d="M 71.960938 174.706875 C 71.960938 160.737656 60.914063 149.414062 47.289063 149.414062 C 33.664063 149.414062 22.617188 160.737656 22.617188 174.706875 C 22.617188 188.676094 33.664063 199.999687 47.289063 199.999687 C 60.914063 199.999687 71.960938 188.676094 71.960938 174.706875 Z M 71.960938 174.706875 " transform="matrix(0.5,-0.00000000000000006,-0.000000000000000061,-0.490196,0.000000000000007105,100)"/>
<path style="fill:none;stroke-width:8;stroke-linecap:butt;stroke-linejoin:miter;stroke:rgb(82.352942%,80.784315%,98.039216%);stroke-opacity:1;stroke-miterlimit:4;" d="M 156.265625 96.716719 C 156.265625 92.644687 153.046875 89.337656 149.070312 89.337656 C 145.09375 89.337656 141.875 92.644687 141.875 96.716719 C 141.875 100.796719 145.09375 104.095781 149.070312 104.095781 C 153.046875 104.095781 156.265625 100.796719 156.265625 96.716719 Z M 156.265625 96.716719 " transform="matrix(0.5,-0.00000000000000006,-0.000000000000000061,-0.490196,0.000000000000007105,100)"/>
</g>
</svg>
