<?xml version="1.0" encoding="UTF-8"?>
<svg width="100px" height="101px" viewBox="0 0 100 101" version="1.1" xmlns="http://www.w3.org/2000/svg" xmlns:xlink="http://www.w3.org/1999/xlink">
    <title>Group</title>
    <g id="Symbols" stroke="none" stroke-width="1" fill="none" fill-rule="evenodd">
        <g id="Main/logo/100x100" transform="translate(0.000000, 2.000000)">
            <g id="Group" transform="translate(-0.000000, -0.000000)">
                <path d="M56.0512372,5.12107757 C54.7660812,5.68748457 41.2973312,17.2617026 40.7309252,18.3476406 C40.1176442,19.4296716 40.7856122,21.0312346 41.9653002,21.3945156 C43.2504562,21.8085776 43.8676442,21.4452966 51.8871752,14.4726406 C55.5356122,11.3202966 58.8793622,8.73826557 59.2387372,8.73826557 C59.5981122,8.73826557 60.3676442,9.20310857 60.9340502,9.76951557 C61.8598312,10.6992026 61.9613942,11.4765466 61.9613942,16.4335776 L61.9613942,22.0663906 L66.7426442,24.3906086 C69.3129562,25.6835776 72.6528002,27.8007656 74.1449872,29.1445156 C77.3832682,32.0351406 80.9301442,37.3046716 82.6254562,41.8007656 C83.8090502,45.0546716 83.9106122,45.1601406 85.6059252,45.1601406 C87.4067062,45.1601406 87.4067062,45.1054526 87.3559252,42.9882656 C87.3559252,41.4921716 86.5824872,39.2695156 85.0942062,36.2734216 C82.1645182,30.2265466 75.9418622,23.9257656 70.0824872,20.9296716 L66.0746752,18.9140466 L66.0746752,8.63279657 L64.0707682,6.62107757 C62.2699872,4.81248457 61.8090502,4.60545257 59.5981122,4.65623457 C58.2113942,4.65623457 56.6176442,4.86326557 56.0512372,5.12107757 Z" id="Path" fill="#484848" fill-rule="nonzero"></path>
                <path d="M8.65670621,28.9374846 C2.23092521,35.8085776 -1.00735579,46.2968586 0.277800205,55.8007656 C1.41061221,63.9648276 2.89889421,66.6484216 17.6020182,86.7460776 L25.7231122,97.8515466 L30.8129562,98.0077966 C34.1020182,98.1132656 36.1059252,97.9570156 36.5707682,97.5429526 C37.0824872,97.1288906 37.2895182,95.5273276 37.2895182,91.6015466 L37.2895182,86.2304526 L43.4574872,86.2304526 L43.4574872,91.6015466 C43.4574872,95.5273276 43.6606122,97.1288906 44.1762372,97.5429526 C44.6410812,97.9570156 46.6449872,98.1132656 49.9340502,98.0077966 L55.0238942,97.8515466 L62.7348312,86.2812346 L75.8403002,86.1757656 C83.0356122,86.1249846 90.2856122,86.0234216 91.9301442,85.9726406 C95.2192062,85.8671716 96.9145182,84.9374846 98.8676442,82.0976406 C99.9496752,80.4413906 100.000456,80.0312346 100.000456,67.6327966 C100.000456,55.2343586 99.9496752,54.8202966 98.8676442,53.1679526 C96.9692062,50.4296716 95.1684252,49.3437346 92.3910812,49.3437346 C89.4106122,49.3437346 86.9965502,50.6874846 85.4535812,53.1679526 C84.3754562,54.9218586 84.3207682,55.4921716 84.3207682,68.3046716 L84.3207682,81.5781086 L60.4184252,81.5781086 L56.5121752,87.5195156 L52.5551442,93.4609216 L48.0824872,93.4609216 L48.0824872,88.5038906 C48.0824872,81.3749846 48.3403002,81.5781086 40.3715502,81.5781086 C32.4067062,81.5781086 32.6606122,81.3749846 32.6606122,88.5038906 L32.6606122,93.4609216 L28.2426442,93.4609216 L18.9379562,80.6484216 C7.93795621,65.5117026 7.32076821,64.5312346 5.87936221,60.2968586 C4.44186221,56.0585776 4.28951821,48.1562346 5.62545621,43.6093586 C6.70358121,39.8359216 8.96530021,35.6523276 11.6371752,32.4492026 C13.8481122,29.8163906 14.0551442,28.8867026 12.8207682,27.6445156 C11.5863942,26.4062346 10.7660812,26.6132656 8.65670621,28.9374846 Z M93.4731122,54.2499846 C94.0903002,54.6132656 94.7582682,55.1288906 94.9613942,55.4374846 C95.1684252,55.7499846 95.3754562,61.2773276 95.3754562,67.7343586 C95.3754562,78.8398276 95.3246752,79.5663906 94.3442062,80.5468586 C92.9574872,81.9413906 91.4692062,81.8398276 89.9262372,80.2890466 L88.6410812,78.9960776 L88.7934252,67.3202966 C88.9496752,55.7499846 88.9496752,55.6445156 90.1840502,54.6640466 C91.5707682,53.5273276 91.9809252,53.4765466 93.4731122,54.2499846 Z" id="Shape" fill="#484848" fill-rule="nonzero"></path>
                <path d="M35.9809252,12.3984358 C35.9809252,5.55078048 30.4574877,5.32907052e-15 23.6449877,5.32907052e-15 C16.8324877,5.32907052e-15 11.3090502,5.55078048 11.3090502,12.3984358 C11.3090502,19.246091 16.8324877,24.796871 23.6449877,24.796871 C30.4574877,24.796871 35.9809252,19.246091 35.9809252,12.3984358 Z" id="Path" stroke="#D2CEFA" stroke-width="3.96097814" transform="translate(23.644988, 12.398436) scale(-1, 1) rotate(-180.000000) translate(-23.644988, -12.398436) "></path>
                <path d="M78.1332687,50.6288983 C78.1332687,48.6328045 76.5238937,47.0117111 74.5356122,47.0117111 C72.5473312,47.0117111 70.9379562,48.6328045 70.9379562,50.6288983 C70.9379562,52.628898 72.5473312,54.2460849 74.5356122,54.2460849 C76.5238937,54.2460849 78.1332687,52.628898 78.1332687,50.6288983 Z" id="Path" stroke="#D2CEFA" stroke-width="3.96097814" transform="translate(74.535612, 50.628898) scale(-1, 1) rotate(-180.000000) translate(-74.535612, -50.628898) "></path>
            </g>
        </g>
    </g>
</svg>